<svg width="24" height="24" viewBox="0 0 24 24" fill="none" xmlns="http://www.w3.org/2000/svg">
<path d="M21 20V6C21 4.89543 20.1046 4 19 4H5C3.89543 4 3 4.89543 3 6V20C3 21.1046 3.89543 22 5 22H19C20.1046 22 21 21.1046 21 20Z" stroke="#003E53" stroke-width="2" stroke-linejoin="round"/>
<path d="M6 14H8" stroke="#003E53" stroke-width="2"/>
<path d="M7 0L7 7" stroke="#003E53" stroke-width="2"/>
<path d="M17 0L17 7" stroke="#003E53" stroke-width="2"/>
<path d="M6 18H8" stroke="#003E53" stroke-width="2"/>
<path d="M11 14H13" stroke="#003E53" stroke-width="2"/>
<path d="M11 18H13" stroke="#003E53" stroke-width="2"/>
<path d="M16 14H18" stroke="#003E53" stroke-width="2"/>
<path d="M16 18H18" stroke="#003E53" stroke-width="2"/>
<path d="M3 10H21.5" stroke="#003E53" stroke-width="2"/>
</svg>
