<svg width="24" height="24" viewBox="0 0 24 24" fill="none" xmlns="http://www.w3.org/2000/svg">
<path fill-rule="evenodd" clip-rule="evenodd" d="M1 12.4091C1 5.57127 6.12468 1 12.4091 1C15.5075 1 18.1632 2.00002 20.0525 3.78435C21.9456 5.57229 23 8.08378 23 10.9636C23 12.7502 22.4655 14.538 21.5342 15.9041C20.6058 17.2663 19.1946 18.3182 17.4455 18.3182C16.5887 18.3182 15.7714 18.0783 15.156 17.5261C14.9497 17.3409 14.7778 17.1312 14.64 16.9018C13.6909 17.7834 12.459 18.3273 10.9909 18.3273C9.58075 18.3273 8.36229 17.7851 7.50745 16.8143C6.66333 15.8556 6.23636 14.5529 6.23636 13.1182C6.23636 9.54808 8.42846 6.16364 12.0909 6.16364C13.5011 6.16364 14.7195 6.70583 15.5744 7.67664C15.6495 7.76201 15.7214 7.8501 15.7899 7.94077L16.0703 6.7059L18.0206 7.14864L16.6871 13.0233C16.6539 13.1936 16.6157 13.3622 16.5723 13.5288L16.2892 14.776L16.2844 14.794C16.2357 14.9765 16.2182 15.144 16.2182 15.2909C16.2182 15.6863 16.3457 15.9065 16.4917 16.0375C16.6513 16.1808 16.9477 16.3182 17.4455 16.3182C18.3236 16.3182 19.1897 15.7928 19.8817 14.7777C20.5709 13.7666 21 12.3771 21 10.9636C21 8.58895 20.1407 6.61862 18.6793 5.23838C17.214 3.85452 15.0743 3 12.4091 3C7.16623 3 3 6.73782 3 12.4091C3 15.2634 4.06869 17.3818 5.68332 18.7983C7.31526 20.2299 9.57129 21 12.0091 21C14.8669 21 16.4843 20.0867 17.3375 19.4333L18.5534 21.0212C17.3885 21.9133 15.3512 23 12.0091 23C9.16507 23 6.41656 22.102 4.36441 20.3017C2.29495 18.4863 1 15.8094 1 12.4091ZM14.7598 12.4789C14.8159 12.1277 14.8455 11.7581 14.8455 11.3727C14.8455 10.3257 14.5361 9.52382 14.0734 8.99836C13.6214 8.48508 12.9626 8.16364 12.0909 8.16364C9.95336 8.16364 8.23636 10.1792 8.23636 13.1182C8.23636 14.1652 8.54577 14.9671 9.00846 15.4925C9.46044 16.0058 10.1193 16.3273 10.9909 16.3273C12.6288 16.3273 14.0198 15.1438 14.5806 13.2683L14.7598 12.4789Z" fill="#003E53"/>
</svg>
