<svg width="24" height="24" viewBox="0 0 24 24" fill="none" xmlns="http://www.w3.org/2000/svg">
<g clip-path="url(#clip0_207_1751)">
<path fill-rule="evenodd" clip-rule="evenodd" d="M22.5117 14.7449C22.985 15.0121 23.1583 15.6083 22.9019 16.0875L22.3379 17.1417C20.1907 21.1553 14.9336 22.8096 11.0704 20.1453C9.66385 19.1752 8.26269 18.0809 7.00327 16.8224C5.59181 15.412 4.3841 13.8232 3.32573 12.246C0.857635 8.56804 2.18184 3.61611 5.82075 1.29L7.05577 0.500537C7.28801 0.352079 7.57124 0.306067 7.83853 0.373371C8.10583 0.440674 8.33349 0.615324 8.46774 0.856063L11.5593 6.40006C11.8267 6.8795 11.6576 7.48484 11.1805 7.75629L8.37151 9.35431C9.10155 10.7702 9.79181 11.7776 10.6208 12.6066C11.4543 13.4401 12.468 14.1333 13.896 14.8677L15.6449 11.9817C15.9249 11.5197 16.5212 11.3636 16.9917 11.6291L22.5117 14.7449ZM16.8529 13.8474L15.1309 16.689C14.8647 17.1282 14.309 17.2944 13.8454 17.0734C11.8798 16.1366 10.4178 15.232 9.20661 14.0208C7.99545 12.8097 7.09087 11.3476 6.15403 9.38204C5.92849 8.90885 6.10663 8.34181 6.56225 8.08261L9.32969 6.50819L7.23819 2.75763L6.89793 2.97513C4.10997 4.75729 3.20426 8.47572 4.98647 11.1316C6.00236 12.6455 7.12888 14.1206 8.41695 15.4077C9.56488 16.5548 10.8633 17.5729 12.2059 18.4989C14.9723 20.4068 18.9227 19.2857 20.5744 16.1983L20.6773 16.0061L16.8529 13.8474Z" fill="#003E53"/>
</g>
<defs>
<clipPath id="clip0_207_1751">
<rect width="24" height="24" fill="white"/>
</clipPath>
</defs>
</svg>
