<svg width="24" height="24" viewBox="0 0 24 24" fill="none" xmlns="http://www.w3.org/2000/svg">
<path d="M18.5 15H20C20.5523 15 21 14.5523 21 14V9C21 8.44772 20.5523 8 20 8H4C3.44772 8 3 8.44772 3 9V14C3 14.5523 3.44772 15 4 15H6.5" stroke="#003E53" stroke-width="2" stroke-linejoin="round"/>
<path d="M18 22V12H6V22C6 22.5523 6.44772 23 7 23H17C17.5523 23 18 22.5523 18 22Z" stroke="#003E53" stroke-width="2"/>
<path d="M18 7V3H6V7C6 7.55228 6.44772 8 7 8H17C17.5523 8 18 7.55229 18 7Z" stroke="#003E53" stroke-width="2" stroke-linejoin="round"/>
<path d="M9 16H15" stroke="#003E53" stroke-width="2"/>
<path d="M9 19H15" stroke="#003E53" stroke-width="2"/>
</svg>
