<svg width="24" height="24" viewBox="0 0 24 24" fill="none" xmlns="http://www.w3.org/2000/svg">
<path fill-rule="evenodd" clip-rule="evenodd" d="M7.20718 9.70712L13.2072 3.70712L11.793 2.29291L6.50008 7.5858L4.20718 5.29291L2.79297 6.70712L5.79297 9.70712C6.18349 10.0976 6.81666 10.0976 7.20718 9.70712ZM18.5 6H13V8H18.5C19.0523 8 19.5 8.44772 19.5 9V19.0858L18.2071 17.7929C18.0196 17.6054 17.7652 17.5 17.5 17.5H8.5C7.94772 17.5 7.5 17.0523 7.5 16.5V12H5.5V16.5C5.5 18.1569 6.84315 19.5 8.5 19.5H17.0858L19.7929 22.2071C20.0789 22.4931 20.509 22.5787 20.8827 22.4239C21.2564 22.2691 21.5 21.9045 21.5 21.5V9C21.5 7.34315 20.1569 6 18.5 6Z" fill="#003E53"/>
</svg>
