<svg width="24" height="24" viewBox="0 0 24 24" fill="none" xmlns="http://www.w3.org/2000/svg">
<path fill-rule="evenodd" clip-rule="evenodd" d="M12 3C9.23858 3 7 5.23858 7 8C7 8.5654 7.2704 9.3572 7.80888 10.3136C8.33227 11.2432 9.04324 12.2151 9.77437 13.1099C10.5024 14.0009 11.2332 14.7946 11.7833 15.3665C11.8592 15.4455 11.9316 15.5202 12 15.5902C12.0684 15.5202 12.1408 15.4455 12.2167 15.3665C12.7668 14.7946 13.4976 14.0009 14.2256 13.1099C14.9568 12.2151 15.6677 11.2432 16.1911 10.3136C16.7296 9.3572 17 8.5654 17 8C17 5.23858 14.7614 3 12 3ZM12 17L12.6879 17.7258C12.3021 18.0914 11.6979 18.0914 11.3121 17.7258L12 17ZM11.3121 17.7258C11.3123 17.726 11.3121 17.7258 12 17C12.6879 17.7258 12.6877 17.726 12.6879 17.7258L12.6939 17.7201L12.7085 17.7062L12.7622 17.6545C12.8086 17.6097 12.8756 17.5445 12.9603 17.4609C13.1297 17.2936 13.3703 17.0524 13.6583 16.7529C14.2332 16.1552 15.0024 15.3201 15.7744 14.3754C16.5432 13.4344 17.3323 12.3634 17.9339 11.2948C18.5204 10.2531 19 9.09146 19 8C19 4.13401 15.866 1 12 1C8.13401 1 5 4.13401 5 8C5 9.09146 5.4796 10.2531 6.06612 11.2948C6.66773 12.3634 7.45676 13.4344 8.22563 14.3754C8.99758 15.3201 9.76685 16.1552 10.3417 16.7529C10.6297 17.0524 10.8703 17.2936 11.0397 17.4609C11.1244 17.5445 11.1914 17.6097 11.2378 17.6545L11.2915 17.7062L11.3061 17.7201L11.3121 17.7258ZM5 22V20H19V22H5ZM12 10C13.1046 10 14 9.10457 14 8C14 6.89543 13.1046 6 12 6C10.8954 6 10 6.89543 10 8C10 9.10457 10.8954 10 12 10Z" fill="#003E53"/>
</svg>
