<svg width="106" height="80" viewBox="0 0 106 80" fill="none" xmlns="http://www.w3.org/2000/svg">
<path d="M54.946 68.3129C51.614 68.3129 49.5723 70.5274 49.5723 73.9657C49.5723 77.4039 51.614 79.5978 54.946 79.5978C58.2781 79.5978 60.3198 77.4055 60.3198 73.9657C60.3198 70.5258 58.2781 68.3129 54.946 68.3129ZM54.946 77.7495C52.7743 77.7495 51.8946 76.0518 51.8946 73.9673C51.8946 71.8827 52.7759 70.1628 54.946 70.1628C57.1161 70.1628 57.9975 71.8827 57.9975 73.9673C57.9975 76.0518 57.1161 77.7495 54.946 77.7495Z" fill="#EB5528"/>
<path d="M11.2026 65.1964H5.14087V72.3757C3.93772 72.1823 2.82017 71.4294 2.28279 70.3768L0.455078 71.1932C1.22865 72.7197 2.88357 74.1385 5.14087 74.3525V79.3822H7.41877V74.3525H11.201C14.1463 74.3525 16.188 72.6975 16.188 69.7745C16.188 66.8514 14.1463 65.1964 11.201 65.1964H11.2026ZM10.8158 72.3757H7.42036V67.1748H10.8158C12.6863 67.1748 13.7817 67.9277 13.7817 69.776C13.7817 71.6244 12.6847 72.3773 10.8158 72.3773V72.3757Z" fill="#EB5528"/>
<path d="M66.4029 77.2549H66.3807L63.2215 68.5285H60.793L65.092 79.3822H67.6283L71.9701 68.5285H69.6478L66.4029 77.2549Z" fill="#EB5528"/>
<path d="M19.9332 70.3768L19.8254 68.5285H17.9121V79.3838H20.1044V73.5805C20.1044 71.71 21.3076 70.2912 22.9419 70.2912C23.5649 70.2912 24.0166 70.4418 24.275 70.5924L24.7268 68.6157C24.4256 68.4445 23.931 68.3145 23.3937 68.3145C21.6737 68.3145 20.4912 69.1309 19.9332 70.3784V70.3768Z" fill="#EB5528"/>
<path d="M22.3391 67.3031L24.7026 63.6921H22.7909L21.1994 66.0128L19.6094 63.6921H17.6533L20.039 67.3031H22.3391Z" fill="#EB5528"/>
<path d="M44.5839 70.678L44.4555 68.5285H42.715C40.7161 72.9987 35.8591 77.6845 31.1511 77.6845C28.572 77.6845 27.4751 76.5241 27.1311 75.0198H30.6565C33.3006 75.0198 34.9127 73.6867 34.9127 71.6878C34.9127 69.6888 33.3006 68.3129 30.6565 68.3129C27.2389 68.3129 24.7676 70.548 24.7676 73.9451C24.7676 77.3421 27.0249 79.5978 31.1511 79.5978C35.6641 79.5978 40.5877 75.944 42.715 72.0111V79.3838H44.9073V73.5805C44.9073 71.71 46.1104 70.2912 47.7448 70.2912C48.3677 70.2912 48.8195 70.4418 49.0779 70.5924L49.5297 68.6157C49.2285 68.4445 48.7339 68.3145 48.1965 68.3145C46.2198 68.3145 45.0801 69.3893 44.5855 70.6796L44.5839 70.678ZM30.4837 70.1184C31.8169 70.1184 32.5904 70.7208 32.5904 71.6878C32.5904 72.6547 31.8169 73.2571 30.4837 73.2571H27.1089C27.2373 71.4516 28.6354 70.1184 30.4837 70.1184Z" fill="#EB5528"/>
<path d="M26.6793 48.8818L26.5715 47.0335H24.6582V57.8888H26.8505V52.0854C26.8505 50.2149 28.0537 48.7962 29.688 48.7962C30.311 48.7962 30.7627 48.9468 31.0211 49.0974L31.4729 47.1206C31.1717 46.9494 30.6771 46.8195 30.1398 46.8195C28.4198 46.8195 27.2373 47.6358 26.6793 48.8834V48.8818Z" fill="#EB5528"/>
<path d="M35.424 51.7193C33.4251 52.0854 31.9414 53.0302 31.9414 54.9863C31.9414 56.9424 33.4679 58.1028 35.6174 58.1028C37.7669 58.1028 39.1207 56.4906 39.3141 56.0183L39.4219 57.8888H41.3352V50.6667C41.3352 48.0876 39.5519 46.8195 36.7778 46.8195C34.1987 46.8195 32.8022 48.0654 32.1142 49.8503L34.0053 50.6033C34.4143 49.4635 35.3163 48.6266 36.7778 48.6266C38.2393 48.6266 39.1429 49.4001 39.1429 50.8411V51.0566L35.424 51.7224V51.7193ZM39.1429 53.417C39.1429 54.9007 37.6164 56.2973 36.112 56.2973C34.8217 56.2973 34.2415 55.6521 34.2415 54.9007C34.2415 54.1493 34.7139 53.5898 36.2182 53.3314L39.1413 52.8162V53.4186L39.1429 53.417Z" fill="#EB5528"/>
<path d="M53.8672 52.4722C53.8672 55.9121 55.9089 58.1044 59.2409 58.1044C62.573 58.1044 64.6147 55.9121 64.6147 52.4722C64.6147 49.0324 62.573 46.8195 59.2409 46.8195C55.9089 46.8195 53.8672 49.034 53.8672 52.4722ZM59.2409 48.6678C61.4126 48.6678 62.2924 50.3877 62.2924 52.4722C62.2924 54.5567 61.4111 56.2544 59.2409 56.2544C57.0708 56.2544 56.1895 54.5567 56.1895 52.4722C56.1895 50.3877 57.0708 48.6678 59.2409 48.6678Z" fill="#EB5528"/>
<path d="M80.4814 45.8081H82.2442L84.6505 42.1971H82.222L80.4814 45.8081Z" fill="#EB5528"/>
<path d="M94.3665 46.8195C91.8302 46.8195 91.0567 48.2588 90.7555 48.8834L90.6477 47.035H88.7344V57.8904H90.9267V52.0014C90.9267 50.1959 92.0442 48.7122 93.807 48.7122C95.5697 48.7122 96.1499 49.7869 96.1499 51.5068V57.8904H98.3422V50.7333C98.3422 48.2826 96.8584 46.821 94.3665 46.821V46.8195Z" fill="#EB5528"/>
<path d="M20.3812 58.1028C21.7143 58.1028 22.4229 57.6732 22.8319 57.372L22.4229 55.6315C22.0567 55.9105 21.4765 56.2544 20.7458 56.2544C19.6488 56.2544 19.0052 55.8883 19.0052 54.5345V48.839H22.6385V47.0335H19.0052V44.1754H16.8129V47.0335H14.749V48.839H16.8129V54.6423C16.8129 57.1136 18.1667 58.1028 20.3812 58.1028Z" fill="#EB5528"/>
<path d="M81.5327 46.8195C78.9536 46.8195 77.557 48.0654 76.8691 49.8503L78.7602 50.6033C79.1692 49.4635 80.0711 48.6266 81.5327 48.6266C82.9942 48.6266 83.8978 49.4001 83.8978 50.8411V51.0566L80.1789 51.7224C78.18 52.0886 76.6963 53.0334 76.6963 54.9895C76.6963 56.9456 78.2228 58.1059 80.3723 58.1059C82.5218 58.1059 83.8756 56.4938 84.069 56.0214L84.1768 57.8919H86.0901V50.6699C86.0901 48.0908 84.3067 46.8226 81.5327 46.8226V46.8195ZM83.8978 53.417C83.8978 54.9007 82.3712 56.2973 80.8669 56.2973C79.5766 56.2973 78.9964 55.6521 78.9964 54.9007C78.9964 54.1493 79.4688 53.5898 80.9731 53.3314L83.8962 52.8162V53.4186L83.8978 53.417Z" fill="#EB5528"/>
<path d="M70.6559 55.7599H70.6352L67.4744 47.0335H65.0459L69.3449 57.8888H71.8812L76.223 47.0335H73.9023L70.6559 55.7599Z" fill="#EB5528"/>
<path d="M9.42212 58.1028C11.6572 58.1028 13.8923 56.8346 13.8923 54.6629C13.8923 50.3211 6.97143 52.3422 6.97143 49.9343C6.97143 49.0324 8.00338 48.6234 9.01314 48.6234C10.0229 48.6234 11.291 49.0102 11.8506 50.6001L13.7417 49.8472C12.8826 47.6121 11.2276 46.8163 9.01314 46.8163C6.79864 46.8163 4.69352 48.0194 4.69352 50.1483C4.69352 54.4902 11.5938 52.3628 11.5938 54.8769C11.5938 55.8011 10.4335 56.2957 9.42212 56.2957C8.41077 56.2957 6.84303 56.0373 6.17725 54.124L4.28613 54.8769C5.1453 57.3054 7.1886 58.1012 9.4237 58.1012L9.42212 58.1028Z" fill="#EB5528"/>
<path d="M47.9791 55.7599H47.9569L44.7976 47.0335H42.3691L46.6681 57.8888H49.2044L53.5462 47.0335H51.224L47.9791 55.7599Z" fill="#EB5528"/>
<path d="M105.157 42.1971H102.727L100.986 45.8081H102.749L105.157 42.1971Z" fill="#EB5528"/>
<path d="M103.179 47.0335H100.986V57.8888H103.179V47.0335Z" fill="#EB5528"/>
<path d="M53.7836 30.4303C53.7836 27.9796 52.2998 26.5181 49.8079 26.5181C47.316 26.5181 46.4981 27.9574 46.1969 28.582L46.0891 26.7336H44.1758V37.5889H46.3681V31.7C46.3681 29.8945 47.4856 28.4108 49.2484 28.4108C51.0111 28.4108 51.5913 29.4855 51.5913 31.2054V37.5889H53.7836V30.4319V30.4303Z" fill="#EB5528"/>
<path d="M58.622 26.7336H56.4297V37.5889H58.622V26.7336Z" fill="#EB5528"/>
<path d="M78.5036 37.8029C81.8357 37.8029 83.8774 35.6106 83.8774 32.1708C83.8774 28.731 81.8357 26.5181 78.5036 26.5181C75.1716 26.5181 73.1299 28.7325 73.1299 32.1708C73.1299 35.6091 75.1716 37.8029 78.5036 37.8029ZM78.5036 28.368C80.6753 28.368 81.5551 30.0879 81.5551 32.1724C81.5551 34.2569 80.6738 35.9546 78.5036 35.9546C76.3335 35.9546 75.4522 34.2569 75.4522 32.1724C75.4522 30.0879 76.3335 28.368 78.5036 28.368Z" fill="#EB5528"/>
<path d="M63.8193 31.6984C63.8193 29.8929 64.9368 28.4092 66.6995 28.4092C68.4622 28.4092 69.0424 29.4839 69.0424 31.2038V37.5874H71.2347V30.4303C71.2347 27.9796 69.751 26.5181 67.2591 26.5181C65.0018 26.5181 64.0998 27.6784 63.8193 28.3664V22.0035H61.627V37.5874H63.8193V31.6984Z" fill="#EB5528"/>
<path d="M58.1702 21.8973L56.4297 25.5083H58.1924L60.5987 21.8973H58.1702Z" fill="#EB5528"/>
<path d="M41.3779 22.0051H39.1855V37.589H41.3779V22.0051Z" fill="#EB5528"/>
<path d="M7.5274 21.8973H5.57129L7.95857 25.5083H10.2571L12.6222 21.8973H10.7089L9.11892 24.2195L7.5274 21.8973Z" fill="#EB5528"/>
<path d="M31.7732 37.8029C35.1052 37.8029 37.1469 35.6106 37.1469 32.1708C37.1469 28.731 35.1052 26.5181 31.7732 26.5181C28.4411 26.5181 26.3994 28.7325 26.3994 32.1708C26.3994 35.6091 28.4411 37.8029 31.7732 37.8029ZM31.7732 28.368C33.9449 28.368 34.8246 30.0879 34.8246 32.1724C34.8246 34.2569 33.9433 35.9546 31.7732 35.9546C29.6031 35.9546 28.7217 34.2569 28.7217 32.1724C28.7217 30.0879 29.6031 28.368 31.7732 28.368Z" fill="#EB5528"/>
<path d="M18.2323 34.7515L20.4468 32.4942L23.7345 37.589H26.3358L21.929 30.9677L26.0774 26.7336H23.3477L18.2323 32.1724V22.0051H16.04V37.589H18.2323V34.7515Z" fill="#EB5528"/>
<path d="M9.42212 37.8029C11.6572 37.8029 13.8923 36.5348 13.8923 34.3631C13.8923 30.0213 6.97143 32.0424 6.97143 29.6345C6.97143 28.7325 8.00338 28.3236 9.01314 28.3236C10.0229 28.3236 11.291 28.7104 11.8506 30.3003L13.7417 29.5473C12.8826 27.3122 11.2276 26.5165 9.01314 26.5165C6.79864 26.5165 4.69352 27.7196 4.69352 29.8485C4.69352 34.1903 11.5938 32.063 11.5938 34.5771C11.5938 35.5013 10.4335 35.9958 9.42212 35.9958C8.41077 35.9958 6.84303 35.7375 6.17725 33.8241L4.28613 34.5771C5.1453 37.0056 7.1886 37.8014 9.4237 37.8014L9.42212 37.8029Z" fill="#EB5528"/>
<path d="M65.8417 10.205C65.8417 8.39944 66.9593 6.91571 68.722 6.91571C70.4847 6.91571 71.0649 7.99046 71.0649 9.71039V16.0939H73.2572V8.93682C73.2572 6.48613 71.7735 5.02459 69.2816 5.02459C66.7897 5.02459 65.9717 6.46394 65.6705 7.0885L65.5627 5.24018H63.6494V16.0955H65.8417V10.2065V10.205Z" fill="#EB5528"/>
<path d="M15.6547 14.1172H7.09946L15.3963 3.77865V1.90814H4.47757V3.88486H12.581L4.28418 14.2234V16.0939H15.6547V14.1172Z" fill="#EB5528"/>
<path d="M80.0724 0.403809H77.6439L75.9033 4.01485H77.6645L80.0724 0.403809Z" fill="#EB5528"/>
<path d="M78.0956 5.24019H75.9033V16.0955H78.0956V5.24019Z" fill="#EB5528"/>
<path d="M30.8326 7.0885L30.7248 5.24018H28.8115V16.0955H31.0038V10.2921C31.0038 8.42164 32.207 7.0029 33.8413 7.0029C34.4643 7.0029 34.916 7.15349 35.1744 7.30408L35.6262 5.32736C35.325 5.15617 34.8305 5.02618 34.2931 5.02618C32.5732 5.02618 31.3906 5.84255 30.8326 7.09009V7.0885Z" fill="#EB5528"/>
<path d="M20.2541 9.92597C18.2552 10.2921 16.7715 11.2369 16.7715 13.193C16.7715 15.1491 18.298 16.3095 20.4475 16.3095C22.597 16.3095 23.9508 14.6974 24.1442 14.225L24.2519 16.0955H26.1653V8.87341C26.1653 6.29432 24.3819 5.02618 21.6079 5.02618C19.0288 5.02618 17.6322 6.27213 16.9443 8.05704L18.8354 8.81001C19.2444 7.67026 20.1463 6.83329 21.6079 6.83329C23.0694 6.83329 23.973 7.60685 23.973 9.04778V9.26337L20.2541 9.92914V9.92597ZM23.9714 11.6237C23.9714 13.1074 22.4448 14.504 20.9405 14.504C19.6502 14.504 19.07 13.8588 19.07 13.1074C19.07 12.3561 19.5424 11.7965 21.0467 11.5381L23.9698 11.0229V11.6253L23.9714 11.6237Z" fill="#EB5528"/>
<path d="M41.1905 0.403809H38.762L37.0215 4.01485H38.7842L41.1905 0.403809Z" fill="#EB5528"/>
<path d="M56.6214 16.3095C59.5238 16.3095 60.6414 14.8258 61.2644 13.472L59.3732 12.7191C59.0721 13.407 58.4269 14.5024 56.6214 14.5024C54.6225 14.5024 53.6761 13.277 53.5049 11.3431H61.3072C61.3722 10.9991 61.3928 10.484 61.3928 9.96719C61.3928 7.04412 59.5444 5.02302 56.4486 5.02302C53.3527 5.02302 51.1826 7.19471 51.1826 10.6108C51.1826 14.0268 53.0309 16.3063 56.6214 16.3063V16.3095ZM56.3852 6.83012C58.0401 6.83012 59.0927 7.90487 59.0721 9.58199H53.5271C53.7205 7.90487 54.7303 6.83012 56.3852 6.83012Z" fill="#EB5528"/>
<path d="M39.2138 5.24019H37.0215V16.0955H39.2138V5.24019Z" fill="#EB5528"/>
<path d="M50.1937 5.24019H41.1883V7.04571H47.3784L41.1455 14.504V16.0939H50.3887V14.2884H43.9608L50.1937 6.83013V5.24019Z" fill="#EB5528"/>
<path d="M33.235 4.01485L35.6001 0.403809H33.6868L32.0968 2.72451L30.5053 0.403809H28.5508L30.9365 4.01485H33.235Z" fill="#EB5528"/>
</svg>
