<svg width="106" height="80" viewBox="0 0 106 80" fill="none" xmlns="http://www.w3.org/2000/svg">
<path d="M54.9458 68.313C51.6138 68.313 49.5721 70.5275 49.5721 73.9657C49.5721 77.404 51.6138 79.5979 54.9458 79.5979C58.2779 79.5979 60.3196 77.4056 60.3196 73.9657C60.3196 70.5259 58.2779 68.313 54.9458 68.313ZM54.9458 77.7496C52.7741 77.7496 51.8944 76.0518 51.8944 73.9673C51.8944 71.8828 52.7757 70.1629 54.9458 70.1629C57.116 70.1629 57.9973 71.8828 57.9973 73.9673C57.9973 76.0518 57.116 77.7496 54.9458 77.7496Z" fill="white"/>
<path d="M11.2026 65.1963H5.14087V72.3756C3.93772 72.1822 2.82017 71.4292 2.28279 70.3767L0.455078 71.193C1.22865 72.7196 2.88357 74.1383 5.14087 74.3523V79.3821H7.41877V74.3523H11.201C14.1463 74.3523 16.188 72.6974 16.188 69.7743C16.188 66.8512 14.1463 65.1963 11.201 65.1963H11.2026ZM10.8158 72.3756H7.42036V67.1746H10.8158C12.6863 67.1746 13.7817 67.9276 13.7817 69.7759C13.7817 71.6242 12.6847 72.3772 10.8158 72.3772V72.3756Z" fill="white"/>
<path d="M66.4034 77.2547H66.3812L63.222 68.5283H60.7935L65.0925 79.382H67.6288L71.9706 68.5283H69.6483L66.4034 77.2547Z" fill="white"/>
<path d="M19.9327 70.3768L19.8249 68.5285H17.9116V79.3838H20.1039V73.5804C20.1039 71.7099 21.3071 70.2912 22.9414 70.2912C23.5644 70.2912 24.0161 70.4418 24.2745 70.5924L24.7263 68.6156C24.4251 68.4444 23.9306 68.3145 23.3932 68.3145C21.6733 68.3145 20.4907 69.1308 19.9327 70.3784V70.3768Z" fill="white"/>
<path d="M22.3388 67.3029L24.7023 63.6919H22.7906L21.1991 66.0126L19.6091 63.6919H17.653L20.0387 67.3029H22.3388Z" fill="white"/>
<path d="M44.5838 70.6781L44.4554 68.5286H42.7148C40.7159 72.9988 35.8589 77.6846 31.1509 77.6846C28.5719 77.6846 27.4749 76.5242 27.1309 75.0199H30.6564C33.3005 75.0199 34.9126 73.6868 34.9126 71.6878C34.9126 69.6889 33.3005 68.313 30.6564 68.313C27.2387 68.313 24.7674 70.5481 24.7674 73.9451C24.7674 77.3422 27.0247 79.5979 31.1509 79.5979C35.664 79.5979 40.5875 75.944 42.7148 72.0112V79.3839H44.9071V73.5805C44.9071 71.71 46.1103 70.2913 47.7446 70.2913C48.3676 70.2913 48.8194 70.4419 49.0778 70.5925L49.5295 68.6158C49.2283 68.4446 48.7338 68.3146 48.1964 68.3146C46.2197 68.3146 45.0799 69.3893 44.5854 70.6797L44.5838 70.6781ZM30.4836 70.1185C31.8167 70.1185 32.5903 70.7209 32.5903 71.6878C32.5903 72.6548 31.8167 73.2572 30.4836 73.2572H27.1087C27.2371 71.4517 28.6353 70.1185 30.4836 70.1185Z" fill="white"/>
<path d="M26.6793 48.8817L26.5716 47.0333H24.6582V57.8886H26.8505V52.0853C26.8505 50.2148 28.0537 48.7961 29.688 48.7961C30.311 48.7961 30.7628 48.9466 31.0212 49.0972L31.4729 47.1205C31.1717 46.9493 30.6772 46.8193 30.1398 46.8193C28.4199 46.8193 27.2373 47.6357 26.6793 48.8832V48.8817Z" fill="white"/>
<path d="M35.4239 51.7191C33.425 52.0853 31.9412 53.0301 31.9412 54.9862C31.9412 56.9423 33.4677 58.1026 35.6173 58.1026C37.7668 58.1026 39.1205 56.4905 39.3139 56.0181L39.4217 57.8886H41.335V50.6666C41.335 48.0875 39.5517 46.8193 36.7776 46.8193C34.1985 46.8193 32.802 48.0653 32.114 49.8502L34.0051 50.6032C34.4141 49.4634 35.3161 48.6264 36.7776 48.6264C38.2391 48.6264 39.1427 49.4 39.1427 50.8409V51.0565L35.4239 51.7223V51.7191ZM39.1427 53.4169C39.1427 54.9006 37.6162 56.2971 36.1118 56.2971C34.8215 56.2971 34.2413 55.652 34.2413 54.9006C34.2413 54.1492 34.7137 53.5896 36.218 53.3313L39.1411 52.8161V53.4184L39.1427 53.4169Z" fill="white"/>
<path d="M53.8668 52.4721C53.8668 55.9119 55.9085 58.1042 59.2405 58.1042C62.5726 58.1042 64.6143 55.9119 64.6143 52.4721C64.6143 49.0322 62.5726 46.8193 59.2405 46.8193C55.9085 46.8193 53.8668 49.0338 53.8668 52.4721ZM59.2405 48.6677C61.4122 48.6677 62.292 50.3876 62.292 52.4721C62.292 54.5566 61.4106 56.2543 59.2405 56.2543C57.0704 56.2543 56.1891 54.5566 56.1891 52.4721C56.1891 50.3876 57.0704 48.6677 59.2405 48.6677Z" fill="white"/>
<path d="M80.4816 45.8083H82.2443L84.6507 42.1973H82.2222L80.4816 45.8083Z" fill="white"/>
<path d="M94.366 46.8193C91.8297 46.8193 91.0562 48.2587 90.755 48.8832L90.6472 47.0349H88.7339V57.8902H90.9262V52.0013C90.9262 50.1958 92.0437 48.712 93.8065 48.712C95.5692 48.712 96.1494 49.7868 96.1494 51.5067V57.8902H98.3417V50.7331C98.3417 48.2825 96.8579 46.8209 94.366 46.8209V46.8193Z" fill="white"/>
<path d="M20.3812 58.1027C21.7143 58.1027 22.4229 57.6731 22.8319 57.3719L22.4229 55.6314C22.0567 55.9104 21.4765 56.2544 20.7458 56.2544C19.6488 56.2544 19.0052 55.8882 19.0052 54.5344V48.8389H22.6385V47.0334H19.0052V44.1753H16.8129V47.0334H14.749V48.8389H16.8129V54.6422C16.8129 57.1135 18.1667 58.1027 20.3812 58.1027Z" fill="white"/>
<path d="M81.5329 46.8193C78.9538 46.8193 77.5572 48.0653 76.8693 49.8502L78.7604 50.6032C79.1694 49.4634 80.0713 48.6264 81.5329 48.6264C82.9944 48.6264 83.8979 49.4 83.8979 50.8409V51.0565L80.1791 51.7223C78.1802 52.0885 76.6965 53.0332 76.6965 54.9894C76.6965 56.9455 78.223 58.1058 80.3725 58.1058C82.522 58.1058 83.8758 56.4937 84.0691 56.0213L84.1769 57.8918H86.0903V50.6697C86.0903 48.0907 84.3069 46.8225 81.5329 46.8225V46.8193ZM83.8979 53.4169C83.8979 54.9006 82.3714 56.2971 80.8671 56.2971C79.5767 56.2971 78.9966 55.652 78.9966 54.9006C78.9966 54.1492 79.469 53.5896 80.9733 53.3313L83.8964 52.8161V53.4184L83.8979 53.4169Z" fill="white"/>
<path d="M70.656 55.7601H70.6354L67.4745 47.0337H65.046L69.345 57.889H71.8813L76.2231 47.0337H73.9024L70.656 55.7601Z" fill="white"/>
<path d="M9.42219 58.1029C11.6573 58.1029 13.8924 56.8347 13.8924 54.663C13.8924 50.3212 6.9715 52.3423 6.9715 49.9345C6.9715 49.0325 8.00346 48.6235 9.01322 48.6235C10.023 48.6235 11.2911 49.0103 11.8507 50.6002L13.7418 49.8473C12.8826 47.6122 11.2277 46.8164 9.01322 46.8164C6.79872 46.8164 4.6936 48.0196 4.6936 50.1485C4.6936 54.4903 11.5939 52.3629 11.5939 54.877C11.5939 55.8012 10.4335 56.2958 9.42219 56.2958C8.41085 56.2958 6.84311 56.0374 6.17733 54.1241L4.28621 54.877C5.14538 57.3055 7.18867 58.1013 9.42378 58.1013L9.42219 58.1029Z" fill="white"/>
<path d="M47.9795 55.7601H47.9573L44.798 47.0337H42.3696L46.6686 57.889H49.2048L53.5467 47.0337H51.2244L47.9795 55.7601Z" fill="white"/>
<path d="M105.156 42.1973H102.726L100.986 45.8083H102.749L105.156 42.1973Z" fill="white"/>
<path d="M103.178 47.0337H100.986V57.889H103.178V47.0337Z" fill="white"/>
<path d="M53.7837 30.4303C53.7837 27.9796 52.3 26.5181 49.8081 26.5181C47.3162 26.5181 46.4982 27.9574 46.197 28.582L46.0892 26.7337H44.1759V37.589H46.3682V31.7C46.3682 29.8945 47.4858 28.4108 49.2485 28.4108C51.0112 28.4108 51.5914 29.4855 51.5914 31.2054V37.589H53.7837V30.4319V30.4303Z" fill="white"/>
<path d="M58.6221 26.7334H56.4298V37.5887H58.6221V26.7334Z" fill="white"/>
<path d="M78.5035 37.803C81.8355 37.803 83.8772 35.6107 83.8772 32.1708C83.8772 28.731 81.8355 26.5181 78.5035 26.5181C75.1714 26.5181 73.1297 28.7326 73.1297 32.1708C73.1297 35.6091 75.1714 37.803 78.5035 37.803ZM78.5035 28.368C80.6752 28.368 81.5549 30.0879 81.5549 32.1724C81.5549 34.2569 80.6736 35.9546 78.5035 35.9546C76.3334 35.9546 75.452 34.2569 75.452 32.1724C75.452 30.0879 76.3334 28.368 78.5035 28.368Z" fill="white"/>
<path d="M63.819 31.6984C63.819 29.8929 64.9366 28.4091 66.6993 28.4091C68.462 28.4091 69.0422 29.4839 69.0422 31.2038V37.5873H71.2345V30.4302C71.2345 27.9795 69.7508 26.518 67.2589 26.518C65.0016 26.518 64.0996 27.6784 63.819 28.3663V22.0034H61.6267V37.5873H63.819V31.6984Z" fill="white"/>
<path d="M58.1703 21.8975L56.4298 25.5085H58.1925L60.5988 21.8975H58.1703Z" fill="white"/>
<path d="M41.3782 22.0049H39.1859V37.5888H41.3782V22.0049Z" fill="white"/>
<path d="M7.52766 21.8975H5.57155L7.95883 25.5085H10.2573L12.6224 21.8975H10.7091L9.11918 24.2197L7.52766 21.8975Z" fill="white"/>
<path d="M31.7732 37.803C35.1053 37.803 37.147 35.6107 37.147 32.1708C37.147 28.731 35.1053 26.5181 31.7732 26.5181C28.4412 26.5181 26.3995 28.7326 26.3995 32.1708C26.3995 35.6091 28.4412 37.803 31.7732 37.803ZM31.7732 28.368C33.9449 28.368 34.8247 30.0879 34.8247 32.1724C34.8247 34.2569 33.9434 35.9546 31.7732 35.9546C29.6031 35.9546 28.7218 34.2569 28.7218 32.1724C28.7218 30.0879 29.6031 28.368 31.7732 28.368Z" fill="white"/>
<path d="M18.2324 34.7513L20.4469 32.494L23.7346 37.5888H26.3359L21.9291 30.9675L26.0775 26.7335H23.3478L18.2324 32.1722V22.0049H16.0401V37.5888H18.2324V34.7513Z" fill="white"/>
<path d="M9.42219 37.8031C11.6573 37.8031 13.8924 36.5349 13.8924 34.3632C13.8924 30.0214 6.9715 32.0425 6.9715 29.6347C6.9715 28.7327 8.00346 28.3237 9.01322 28.3237C10.023 28.3237 11.2911 28.7105 11.8507 30.3004L13.7418 29.5475C12.8826 27.3124 11.2277 26.5166 9.01322 26.5166C6.79872 26.5166 4.6936 27.7198 4.6936 29.8487C4.6936 34.1905 11.5939 32.0631 11.5939 34.5772C11.5939 35.5014 10.4335 35.996 9.42219 35.996C8.41085 35.996 6.84311 35.7376 6.17733 33.8243L4.28621 34.5772C5.14538 37.0057 7.18867 37.8015 9.42378 37.8015L9.42219 37.8031Z" fill="white"/>
<path d="M65.8419 10.2048C65.8419 8.39926 66.9594 6.91553 68.7221 6.91553C70.4849 6.91553 71.065 7.99029 71.065 9.71021V16.0937H73.2573V8.93664C73.2573 6.48595 71.7736 5.02441 69.2817 5.02441C66.7898 5.02441 65.9719 6.46376 65.6707 7.08832L65.5629 5.24H63.6496V16.0953H65.8419V10.2064V10.2048Z" fill="white"/>
<path d="M15.6548 14.1173H7.09957L15.3964 3.77872V1.9082H4.47769V3.88492H12.5811L4.28429 14.2235V16.094H15.6548V14.1173Z" fill="white"/>
<path d="M80.0725 0.403809H77.644L75.9034 4.01485H77.6646L80.0725 0.403809Z" fill="white"/>
<path d="M78.0957 5.24023H75.9034V16.0955H78.0957V5.24023Z" fill="white"/>
<path d="M30.8323 7.08869L30.7245 5.24037H28.8112V16.0957H31.0035V10.2923C31.0035 8.42182 32.2066 7.00309 33.841 7.00309C34.4639 7.00309 34.9157 7.15368 35.1741 7.30427L35.6259 5.32755C35.3247 5.15635 34.8301 5.02637 34.2927 5.02637C32.5728 5.02637 31.3903 5.84274 30.8323 7.09027V7.08869Z" fill="white"/>
<path d="M20.2545 9.92616C18.2556 10.2923 16.7719 11.2371 16.7719 13.1932C16.7719 15.1493 18.2984 16.3097 20.4479 16.3097C22.5974 16.3097 23.9511 14.6976 24.1445 14.2252L24.2523 16.0957H26.1656V8.8736C26.1656 6.29451 24.3823 5.02637 21.6082 5.02637C19.0292 5.02637 17.6326 6.27232 16.9446 8.05723L18.8358 8.81019C19.2447 7.67045 20.1467 6.83347 21.6082 6.83347C23.0698 6.83347 23.9733 7.60704 23.9733 9.04797V9.26355L20.2545 9.92933V9.92616ZM23.9717 11.6239C23.9717 13.1076 22.4452 14.5042 20.9409 14.5042C19.6505 14.5042 19.0704 13.859 19.0704 13.1076C19.0704 12.3562 19.5428 11.7967 21.0471 11.5383L23.9702 11.0231V11.6255L23.9717 11.6239Z" fill="white"/>
<path d="M41.1903 0.403809H38.7618L37.0213 4.01485H38.784L41.1903 0.403809Z" fill="white"/>
<path d="M56.6218 16.3094C59.5243 16.3094 60.6418 14.8257 61.2648 13.472L59.3737 12.719C59.0725 13.407 58.4273 14.5023 56.6218 14.5023C54.6229 14.5023 53.6766 13.277 53.5054 11.3431H61.3076C61.3726 10.9991 61.3932 10.4839 61.3932 9.96713C61.3932 7.04405 59.5449 5.02295 56.449 5.02295C53.3532 5.02295 51.1831 7.19465 51.1831 10.6107C51.1831 14.0268 53.0314 16.3063 56.6218 16.3063V16.3094ZM56.3856 6.83005C58.0406 6.83005 59.0931 7.90481 59.0725 9.58193H53.5275C53.7209 7.90481 54.7307 6.83005 56.3856 6.83005Z" fill="white"/>
<path d="M39.2136 5.24023H37.0213V16.0955H39.2136V5.24023Z" fill="white"/>
<path d="M50.1937 5.24023H41.1883V7.04575H47.3784L41.1455 14.504V16.094H50.3887V14.2884H43.9608L50.1937 6.83017V5.24023Z" fill="white"/>
<path d="M33.2349 4.01485L35.6 0.403809H33.6867L32.0967 2.72451L30.5052 0.403809H28.5507L30.9364 4.01485H33.2349Z" fill="white"/>
</svg>
