<svg width="100" height="100" viewBox="0 0 100 100" fill="none" xmlns="http://www.w3.org/2000/svg">
<g clip-path="url(#clip0_2_1068)">
<path d="M59.1337 24.3666C58.7337 22.0666 57.167 19.8333 54.8337 18.0999C55.2337 15.5666 54.5337 12.3666 51.567 10.0666C47.9003 7.23328 43.2337 7.43328 40.2003 10.3666C37.667 9.06661 34.3337 9.13328 32.4337 11.5999C30.467 14.1666 31.4003 17.5666 33.4337 19.6666C32.967 21.7333 33.1337 25.0666 36.0337 27.3333C39.1003 29.6666 42.267 28.8999 44.2003 27.7666C44.7337 28.3333 45.5003 29.0666 46.4003 29.7666C48.467 31.3666 50.6337 32.1333 52.6003 32.1333C54.667 32.1333 56.5337 31.2666 57.867 29.5333C59.0003 28.0333 59.467 26.2333 59.1337 24.3666ZM55.567 27.7999C53.6337 30.2999 50.367 29.1999 48.1337 27.4999C46.567 26.2999 45.5337 24.9999 45.5003 24.9666L44.567 23.7999L43.4337 24.7999C43.1337 25.0666 40.5337 27.2333 37.767 25.0666C35.2003 23.0999 36.3337 19.8999 36.367 19.7333L36.7337 18.7333L35.9003 18.0666C34.4337 16.9333 33.567 14.7666 34.667 13.3666C35.767 11.9666 38.067 12.2333 39.5337 13.3666L40.667 14.2333L41.5337 13.0999C43.2003 10.9666 46.467 9.79994 49.767 12.3333C52.6337 14.5333 52.067 17.4999 51.8003 18.3333L51.5003 19.3666L52.4003 19.9333C54.5003 21.2666 55.967 23.0999 56.267 24.8333C56.5003 25.9333 56.2337 26.9333 55.567 27.7999Z" fill="#EB5528"/>
<path d="M91.7335 0C86.6668 0 83.4668 9.83333 83.4668 14C83.4668 18.0667 86.4335 21.4667 90.3001 22.1333V44.3333H93.1668V22.1333C97.0335 21.4667 100 18.0667 100 14C100 9.83333 96.8001 0 91.7335 0ZM91.7335 19.4C88.7668 19.4 86.3335 16.9667 86.3335 14C86.3335 12.4667 86.9668 9.56667 88.2001 6.9C89.3335 4.43333 90.7335 2.86667 91.7335 2.86667C92.7335 2.86667 94.1335 4.46667 95.2668 6.9C96.5001 9.53333 97.1335 12.4667 97.1335 14C97.1335 16.9667 94.7001 19.4 91.7335 19.4Z" fill="#EB5528"/>
<path d="M77.6666 32.0667V44.4H80.5333V0L77.8999 3.93333C77.4999 4.53333 68.3332 18.4333 71.6332 26.8C72.6666 29.3667 74.6999 31.1333 77.6666 32.0667ZM77.6666 10.0667V29C75.9999 28.3 74.8999 27.2333 74.2999 25.7333C72.6666 21.6 75.1999 14.8667 77.6666 10.0667Z" fill="#EB5528"/>
<path d="M5.33333 20.2V44.4H8.2V20.2C11.2333 19.5333 13.5333 16.8333 13.5333 13.5666V2.06665H10.6667V13.5666C10.6667 15.2 9.63333 16.6333 8.2 17.2V2.06665H5.33333V17.2C3.9 16.6333 2.86667 15.2333 2.86667 13.5666V2.06665H0V13.5666C0 16.8333 2.3 19.5333 5.33333 20.2Z" fill="#EB5528"/>
<path d="M27.6 59.6C27.6 57.2667 25.7 55.3667 23.3667 55.3667H18.0333C15.7 55.3667 13.8 57.2667 13.8 59.6V62.5334H0V75.7334C0 77.7334 1.13333 79.4667 2.8 80.3334V93.7C2.8 97.1667 5.63333 100 9.1 100H32.3C35.7667 100 38.6 97.1667 38.6 93.7V80.3334C40.2667 79.4667 41.4 77.7334 41.4 75.7334V62.5334H27.6V59.6ZM16.6667 59.6C16.6667 58.8334 17.2667 58.2334 18.0333 58.2334H23.3667C24.1333 58.2334 24.7333 58.8334 24.7333 59.6V62.5334H16.6667V59.6ZM32.3 97.1334H9.1C7.2 97.1334 5.66667 95.6 5.66667 93.7V80.9H10.2333V88.0334H13.1V80.9H28.2333V88.0334H31.1V80.9H35.6667V93.7C35.7 95.6 34.1667 97.1334 32.3 97.1334ZM38.5 75.7334C38.5 77 37.4667 78.0667 36.1667 78.0667H5.16667C3.9 78.0667 2.83333 77.0334 2.83333 75.7334V65.4H38.5V75.7334Z" fill="#EB5528"/>
<path d="M78.233 61.2C78.233 64.6334 80.633 67.0334 84.0664 67.0334C87.4997 67.0334 89.8997 64.6334 89.8997 61.2C89.8997 57.7667 87.4997 55.3667 84.0664 55.3667C80.633 55.3667 78.233 57.7667 78.233 61.2ZM84.0664 58.2334C85.933 58.2334 87.033 59.3334 87.033 61.2C87.033 63.0667 85.933 64.1667 84.0664 64.1667C82.1997 64.1667 81.0997 63.0667 81.0997 61.2C81.0997 59.3334 82.1997 58.2334 84.0664 58.2334Z" fill="#EB5528"/>
<path d="M53.5332 65.9666C53.5332 69.4 55.9332 71.8 59.3665 71.8C62.7999 71.8 65.1999 69.4 65.1999 65.9666C65.1999 62.5333 62.7999 60.1333 59.3665 60.1333C55.9332 60.1333 53.5332 62.5333 53.5332 65.9666ZM62.3665 65.9666C62.3665 67.8333 61.2665 68.9333 59.3999 68.9333C57.5332 68.9333 56.4332 67.8333 56.4332 65.9666C56.4332 64.1 57.5332 63 59.3999 63C61.2332 63 62.3665 64.1333 62.3665 65.9666Z" fill="#EB5528"/>
<path d="M59.3669 74.2666C53.5336 74.2666 49.1002 78.6666 49.1002 84.5333V89.5666H54.8336V99.9999H57.7002V89.5333H61.0002V99.9999H63.8669V89.5333H69.6002V84.4999C69.6336 78.6666 65.2336 74.2666 59.3669 74.2666ZM66.7669 86.6666H52.0002V84.4999C52.0002 80.2333 55.1002 77.0999 59.4002 77.0999C63.6669 77.0999 66.8002 80.1999 66.8002 84.4999V86.6666H66.7669Z" fill="#EB5528"/>
<path d="M84.0669 69.4667C79.3336 69.4667 76.0002 73 74.7336 79.4333L72.6002 89.5333H79.5336V100H82.4002V89.5333H85.7002V100H88.5669V89.5333H95.5002L93.3669 79.4333C92.1336 73 88.8002 69.4667 84.0669 69.4667ZM76.1336 86.6667L77.5336 80C78.2336 76.5 79.9336 72.3333 84.0669 72.3333C88.2002 72.3333 89.9002 76.5 90.6002 80L92.0002 86.6667H76.1336Z" fill="#EB5528"/>
<path d="M46.9336 33.9333C43.5002 33.9333 41.1002 36.3333 41.1002 39.7667C41.1002 43.2 43.5002 45.6 46.9336 45.6C50.3669 45.6 52.7669 43.2 52.7669 39.7667C52.7669 36.3333 50.3669 33.9333 46.9336 33.9333ZM46.9336 42.7333C45.0669 42.7333 43.9669 41.6333 43.9669 39.7667C43.9669 37.9 45.0669 36.8 46.9336 36.8C48.8002 36.8 49.9002 37.9 49.9002 39.7667C49.9002 41.6333 48.8002 42.7333 46.9336 42.7333Z" fill="#EB5528"/>
<path d="M67.8335 26.4333C67.8335 11.3667 56.4668 0 41.4001 0C26.3335 0 14.9668 11.3667 14.9668 26.4333C14.9668 41.5 26.3335 52.8667 41.4001 52.8667C56.4668 52.8667 67.8335 41.5 67.8335 26.4333ZM41.4001 50C27.9668 50 17.8335 39.8667 17.8335 26.4333C17.8335 13 27.9668 2.86667 41.4001 2.86667C54.8335 2.86667 64.9668 13 64.9668 26.4333C64.9668 39.8667 54.8335 50 41.4001 50Z" fill="#EB5528"/>
<path d="M25.3 23.7333C23.6 25.4333 22.6666 27.6333 22.6666 29.9333C22.6666 32.2333 23.6 34.4333 25.3 36.1333C27 37.8333 29.2 38.7666 31.5 38.7666C33.8 38.7666 36 37.8333 37.7 36.1333L38.7 35.1333L26.3333 22.7L25.3 23.7333ZM34.5666 35.0333C33.6333 35.6333 32.5666 35.9333 31.5 35.9333C29.9666 35.9333 28.4666 35.3 27.3 34.1333C26.1333 32.9666 25.5 31.4666 25.5 29.9333C25.5 28.8666 25.8 27.8 26.4 26.8666L34.5666 35.0333Z" fill="#EB5528"/>
</g>
<defs>
<clipPath id="clip0_2_1068">
<rect width="100" height="100" fill="white"/>
</clipPath>
</defs>
</svg>
