<svg width="100" height="100" viewBox="0 0 100 100" fill="none" xmlns="http://www.w3.org/2000/svg">
<g clip-path="url(#clip0_2_1057)">
<path d="M69.2001 47.4334L63.1001 47.4L56.9668 62.8667L59.6335 63.9334L65.0335 50.3L68.6335 50.3334C68.5668 50.9 68.5335 51.5 68.5335 52.1C68.5335 61.0667 75.3001 67.8334 84.2668 67.8334C93.2335 67.8334 100 61.0667 100 52.1C100 44.8334 95.5668 39 89.1001 37.0667C88.7335 32.7667 86.8001 28.3667 80.5335 28.3667C73.4001 28.3667 71.9001 34.0334 71.9001 38.8V42.1667C70.6668 43.7 69.7335 45.4667 69.2001 47.4334ZM97.1335 52.0667C97.1335 59.4 91.6001 64.9334 84.2668 64.9334C76.9335 64.9334 71.4001 59.4 71.4001 52.0667C71.4001 44.7334 76.9335 39.2 84.2668 39.2C84.9668 39.2 85.6335 39.2667 86.3001 39.3334V49.8667H89.1668V40.1C93.9335 41.9667 97.1335 46.5 97.1335 52.0667ZM80.5335 31.2C83.9335 31.2 85.7001 32.8 86.1668 36.4334C85.5335 36.3667 84.9335 36.3334 84.2668 36.3334C80.6335 36.3334 77.3335 37.4334 74.7335 39.3667V38.7667C74.7335 33.4667 76.4668 31.2 80.5335 31.2Z" fill="#EB5528"/>
<path d="M80.5336 25.0334C84.8669 25.0334 88.1336 21.7667 88.1336 17.4334C88.1336 13.1 84.8669 9.83337 80.5336 9.83337C76.2003 9.83337 72.9336 13.1 72.9336 17.4334C72.9336 21.7667 76.2003 25.0334 80.5336 25.0334ZM80.5336 12.7C83.2669 12.7 85.2669 14.7 85.2669 17.4334C85.2669 20.1667 83.2669 22.1667 80.5336 22.1667C77.8003 22.1667 75.8003 20.1667 75.8003 17.4334C75.8003 14.7 77.7669 12.7 80.5336 12.7Z" fill="#EB5528"/>
<path d="M18.1333 82.4C19.1666 84.9666 21.1666 86.7333 24.1333 87.6666V100H26.9999V55.6L24.3666 59.5333C23.9999 60.1333 14.7999 74.0333 18.1333 82.4ZM24.1333 84.6C22.4666 83.9 21.3666 82.8333 20.7666 81.3333C19.1333 77.2 21.6666 70.4666 24.1333 65.6666V84.6Z" fill="#EB5528"/>
<path d="M10.6667 69.1666C10.6667 70.8 9.63333 72.2333 8.2 72.8V57.6666H5.33333V72.8C3.9 72.2333 2.86667 70.8333 2.86667 69.1666V57.6666H0V69.1666C0 72.4 2.3 75.1333 5.33333 75.8V100H8.2V75.8C11.2333 75.1333 13.5333 72.4333 13.5333 69.1666V57.6666H10.6667V69.1666Z" fill="#EB5528"/>
<path d="M14.7335 2.86667C19.9001 2.86667 24.1335 7.06667 24.1335 12.2667H27.0001C27.0001 5.5 21.5001 0 14.7335 0C7.9668 0 2.4668 5.5 2.4668 12.2667H5.33346C5.33346 7.06667 9.5668 2.86667 14.7335 2.86667Z" fill="#EB5528"/>
<path d="M2.46667 15.1333H0V18H2.46667V25.5666H0V28.4333H2.46667V36H0V38.8666H2.46667V51.1H27V38.8666H29.4667V36H27V28.4333H29.4667V25.5666H27V18H29.4667V15.1333H27H2.46667ZM24.1333 48.2H5.33333V38.8333H24.1333V48.2ZM24.1333 35.9666H5.33333V28.4333H24.1333V35.9666ZM24.1333 25.5666H5.33333V18H24.1333V25.5666Z" fill="#EB5528"/>
<path d="M95.6997 87.3334C96.2997 86.3334 96.5997 85.2 96.5997 83.9334C96.5997 82 95.8664 80.3334 94.4664 79.0334C92.7664 77.4667 90.1331 76.6334 87.2331 76.7C85.9997 74.4667 83.4997 72.3334 79.7331 72.3334C76.5331 72.3334 73.7997 73.7667 72.2331 76.0667C70.8997 75.1667 69.2997 74.6667 67.4997 74.6667C65.9331 74.6667 64.4664 75.0667 63.1997 75.8C61.9664 75.0667 60.4997 74.6667 58.8664 74.6667C55.1664 74.6667 52.1664 76.8334 51.0331 80.1C47.1331 80.5 44.1997 83.4 43.7664 87.2667H36.8997L39.0664 89.6667C44.8664 96.1 54.4664 99.9334 64.7331 99.9334H72.1664C82.4664 99.9334 92.0664 96.1 97.8331 89.6667L99.9997 87.2667H95.6997V87.3334ZM79.7331 75.2C83.3331 75.2 84.6997 77.9 85.0331 78.7L85.4331 79.7L86.4997 79.6C88.9997 79.3667 91.2331 79.9334 92.5331 81.1334C93.3331 81.8667 93.7331 82.8 93.7331 83.9C93.7331 85.3 93.0997 86.4334 91.8331 87.2C91.7664 87.2334 91.6997 87.2667 91.6331 87.3H74.6331C75.3664 86.0334 75.7997 84.5667 75.7997 82.9667C75.7997 81.1334 75.2664 79.4667 74.2997 78.1C75.2997 76.3667 77.3331 75.2 79.7331 75.2ZM72.9331 83C72.9331 84.8 72.1997 86.3334 70.8997 87.3334H66.0331C66.7664 86.0667 67.1997 84.6 67.1997 83C67.1997 81.0334 66.5664 79.3 65.5331 77.9C66.1331 77.6667 66.7997 77.5667 67.4997 77.5667C70.6664 77.5667 72.9331 79.8667 72.9331 83ZM58.8997 77.5667C62.0664 77.5667 64.3331 79.8667 64.3331 83C64.3331 84.8 63.5997 86.3334 62.2997 87.3334H60.2664C59.8664 83.8334 57.4331 81.1334 54.0997 80.3334C54.9664 78.6334 56.7331 77.5667 58.8997 77.5667ZM51.9997 82.9667C54.7664 82.9667 56.8997 84.7667 57.3331 87.3334H46.6664C47.1331 84.7334 49.2331 82.9667 51.9997 82.9667ZM72.1664 97.1334H64.7331C56.6331 97.1334 48.9997 94.6 43.6997 90.2H93.2331C87.8997 94.6 80.2997 97.1334 72.1664 97.1334Z" fill="#EB5528"/>
<path d="M52.7003 15.2667C57.0336 15.2667 60.3003 12 60.3003 7.66665C60.3003 3.33332 57.0336 0.0666504 52.7003 0.0666504C48.3669 0.0666504 45.1003 3.33332 45.1003 7.66665C45.1003 12 48.3669 15.2667 52.7003 15.2667ZM52.7003 2.93332C55.4336 2.93332 57.4336 4.93332 57.4336 7.66665C57.4336 10.4 55.4336 12.4 52.7003 12.4C49.9669 12.4 47.9669 10.4 47.9669 7.66665C47.9669 4.93332 49.9669 2.93332 52.7003 2.93332Z" fill="#EB5528"/>
<path d="M36.9331 42.2333C36.9331 40.3666 38.4997 38.8 40.3664 38.8C42.2331 38.8 43.7997 40.3666 43.7997 42.2333V67.8H46.6664V42.2333C46.6664 39.2666 44.5997 36.7666 41.7997 36.1333V32.3666C41.7997 26.3333 46.6997 21.4666 52.6997 21.4666C58.6997 21.4666 63.5997 26.3666 63.5997 32.3666V36.2333H66.4664V32.3666C66.4664 24.7666 60.2997 18.6 52.6997 18.6C45.0997 18.6 38.9331 24.7666 38.9331 32.3666V36.1C36.1664 36.7666 34.0664 39.2333 34.0664 42.2V44.8333H36.9331V42.2333Z" fill="#EB5528"/>
</g>
<defs>
<clipPath id="clip0_2_1057">
<rect width="100" height="100" fill="white"/>
</clipPath>
</defs>
</svg>
