<svg width="100" height="100" viewBox="0 0 100 100" fill="none" xmlns="http://www.w3.org/2000/svg">
<g clip-path="url(#clip0_14_703)">
<path d="M26.4333 52.8667C41.5 52.8667 52.8667 41.5 52.8667 26.4333C52.8667 26.0667 52.8667 25.7333 52.8333 25.3667C54.8 26.3667 56.5667 26.5 58.2333 25.7C59.9 24.9 61.7667 22.4 60.4 19.5333C59.9667 18.6333 59.3333 17.9 58.5 17.3333C59.0333 16.0667 59.2667 14.3333 58.4667 12.6333C57.4 10.4333 54.6333 8.93333 51.8 10.2667C50.5667 10.8667 49.8 11.8 49.3333 12.9C44.7333 4.96667 36.1 0 26.4333 0C11.3667 0 0 11.3667 0 26.4333C0 41.5 11.3667 52.8667 26.4333 52.8667ZM51.4 17.6333C51.5333 14.5333 51.9333 13.3667 53.0333 12.8667C54.2333 12.3 55.4333 12.9333 55.8667 13.8667C56.5 15.2 55.7333 16.6333 55.4 17.0667L54.1667 18.6333L56.0333 19.3C56.6 19.5 57.4 19.8667 57.8 20.7667C58.3667 22 57.4 22.9333 57 23.1333C56.3 23.4667 55.2 23.6667 53.0667 22.1667L52.3667 21.7L45.8 24.8333L44.4 21.8667L51.3667 18.5667L51.4 17.6333ZM16.8333 28.9C16.6667 28.9 16.4667 28.9333 16.3 28.9333C13.1333 28.9333 10.8667 26.6333 10.8667 23.5C10.8667 20.3667 13.1667 18.0667 16.3 18.0667C19.0333 18.0667 21.1667 19.8667 21.6333 22.4C19.0667 24.1 17.4333 26.3667 16.8333 28.9ZM36.8667 20.1333C36.0333 20.1 35.2 20.0333 34.3667 19.9667C33.3667 19.9 32.3333 19.8 31.3 19.8C31.4 19.2333 31.4667 18.7 31.4667 18.1C31.4667 16.1333 30.8333 14.4 29.8 13C30.4 12.7667 31.1 12.6667 31.7667 12.6667C34.9333 12.6667 37.2 14.9667 37.2 18.1C37.2333 18.8333 37.1 19.5 36.8667 20.1333ZM28.6 18.1C28.6 18.7333 28.5 19.3667 28.3 19.9333C27 20.1 25.6333 20.4333 24.2333 21C23.4 18.1667 21.2333 16.1 18.3333 15.4C19.2333 13.7 21 12.6333 23.1333 12.6333C26.3333 12.6667 28.6 14.9333 28.6 18.1ZM24.7 23.9333C26.8333 22.9333 28.7667 22.6333 30.7333 22.6333C31.8333 22.6333 32.9667 22.7333 34.1333 22.8C36.3667 22.9667 38.8333 23.1667 41.6667 22.7333L43.3667 26.3333C41.2667 28.2667 39.8333 30.3667 38.5667 32.2333C36.7333 34.9667 35.1333 37.3 31.8 38.8667C26.8 41.2333 22.6333 39.8667 20.3667 35.1333C18.1667 30.4 19.7333 26.3333 24.7 23.9333ZM26.4333 2.86667C36.2333 2.86667 44.4667 8.23333 48.1 16.8667L41.9333 19.8C41.2333 19.9333 40.5333 20.0333 39.8667 20.0667C40 19.4333 40.1 18.7667 40.1 18.0667C40.1 13.3333 36.5333 9.76667 31.8 9.76667C30.2333 9.76667 28.7667 10.1667 27.5 10.9C26.2667 10.1667 24.8 9.76667 23.2 9.76667C19.5333 9.76667 16.5 11.9333 15.3667 15.2C11.1 15.6333 8.03333 19.0333 8.03333 23.4667C8.03333 28.2 11.6 31.7667 16.3333 31.7667C16.4333 31.7667 16.5333 31.7667 16.6333 31.7667C16.7333 33.2667 17.1333 34.8 17.8667 36.3667C19.8667 40.6 23.3667 42.8667 27.4 42.8667C29.2 42.8667 31.1333 42.4 33.1 41.4667C37.1 39.5667 39.1 36.6667 41 33.8333C42.3667 31.8 43.8 29.7 46.0667 27.8333L50 26C50 26.1333 50 26.3 50 26.4333C50 39.8667 39.8667 50 26.4333 50C13 50 2.86667 39.8667 2.86667 26.4333C2.86667 13 13 2.86667 26.4333 2.86667Z" fill="#EB5528"/>
<path d="M80.5333 44.4001C80.5333 47.3334 79.7333 49.7667 78.0667 51.8334C76 54.4001 74.9667 57.5001 74.9667 61.0667H77.8333C77.8333 58.1334 78.6333 55.7001 80.3 53.6334C82.3333 51.0667 83.4 47.9667 83.4 44.4001C83.4 40.8334 82.3667 37.7334 80.3 35.1667L78.0667 36.9667C79.7333 39.0334 80.5333 41.4667 80.5333 44.4001Z" fill="#EB5528"/>
<path d="M88.3666 44.4C88.3666 47.3333 87.5666 49.7667 85.8999 51.8333C83.8333 54.4 82.7999 57.5 82.7999 61.0667H85.6666C85.6666 58.1333 86.4666 55.7 88.1333 53.6333C90.1666 51.0667 91.2333 47.9667 91.2333 44.4C91.2333 40.8333 90.1999 37.7333 88.1333 35.1667C86.4666 33.1 85.6666 30.6667 85.6666 27.7333C85.6666 24.8 86.4666 22.3667 88.1333 20.3L85.8999 18.5C83.8333 21.0667 82.7999 24.1667 82.7999 27.7333C82.7999 31.3 83.8333 34.4 85.8999 36.9667C87.5666 39.0333 88.3666 41.4667 88.3666 44.4Z" fill="#EB5528"/>
<path d="M47.3667 48.5333V49.9666C47.3667 56.3 52.1334 61.0666 58.4667 61.0666C64.8 61.0666 69.5667 56.3 69.5667 49.9666V6.4333C69.5667 4.56663 71.1334 2.99997 73 2.99997C74.8667 2.99997 76.4334 4.56663 76.4334 6.4333V9.06664H79.3V6.4333C79.3 2.96663 76.4667 0.133301 73 0.133301C69.5334 0.133301 66.7 2.96663 66.7 6.4333V48.5333H47.3667ZM58.5 58.2C54.3 58.2 51 55.3666 50.3667 51.3666H66.6334C66 55.3666 62.7 58.2 58.5 58.2Z" fill="#EB5528"/>
<path d="M18.1333 82.4001C19.1667 84.9668 21.1667 86.7334 24.1333 87.6668V100H27V55.6001L24.3667 59.5334C24 60.1334 14.8 74.0334 18.1333 82.4001ZM24.1333 84.6001C22.4667 83.9001 21.3667 82.8334 20.7667 81.3334C19.1333 77.2001 21.6667 70.4668 24.1333 65.6668V84.6001Z" fill="#EB5528"/>
<path d="M10.6667 69.1667C10.6667 70.8001 9.63333 72.2334 8.2 72.8001V57.6667H5.33333V72.8001C3.9 72.2334 2.86667 70.8334 2.86667 69.1667V57.6667H0V69.1667C0 72.4001 2.3 75.1334 5.33333 75.8001V100H8.2V75.8001C11.2333 75.1334 13.5333 72.4334 13.5333 69.1667V57.6667H10.6667V69.1667Z" fill="#EB5528"/>
<path d="M93.1667 69.0667H90.9667V63.9333H47.4V69.0667H45.2C41.3 69.0667 38.3667 72 38.3667 75.9C38.3667 79.8 41.3 82.7333 45.2 82.7333H47.4V99.9H90.9667V82.7333H93.1667C97.0667 82.7333 100 79.8 100 75.9C100 72 97.0667 69.0667 93.1667 69.0667ZM45.2 79.8667C42.9 79.8667 41.2334 78.2 41.2334 75.9C41.2334 73.6 42.9 71.9333 45.2 71.9333H47.4V79.8667H45.2ZM88.1 97.0334H50.2667V66.8H88.1V97.0334ZM93.1667 79.8667H90.9667V71.9333H93.1667C95.4667 71.9333 97.1334 73.6 97.1334 75.9C97.1334 78.2 95.4667 79.8667 93.1667 79.8667Z" fill="#EB5528"/>
</g>
<defs>
<clipPath id="clip0_14_703">
<rect width="100" height="100" fill="white"/>
</clipPath>
</defs>
</svg>
